<?xml version="1.0" encoding="UTF-8" standalone="no"?><svg xmlns:svg="http://www.w3.org/2000/svg" xmlns="http://www.w3.org/2000/svg" xmlns:xlink="http://www.w3.org/1999/xlink" version="1.0" width="64px" height="64px" viewBox="0 0 128 128" xml:space="preserve"><g><rect fill="#ababab" x="59.5" width="9" height="34.75"/><rect fill="#ababab" x="59.5" width="9" height="34.75" transform="rotate(18 64 64)"/><rect fill="#ababab" x="59.5" width="9" height="34.75" transform="rotate(36 64 64)"/><rect fill="#ababab" x="59.5" width="9" height="34.75" transform="rotate(54 64 64)"/><rect fill="#000000" x="59.5" width="9" height="34.75" transform="rotate(72 64 64)"/><rect fill="#000000" x="59.5" width="9" height="34.75" transform="rotate(90 64 64)"/><rect fill="#000000" x="59.5" width="9" height="34.75" transform="rotate(108 64 64)"/><rect fill="#000000" x="59.5" width="9" height="34.75" transform="rotate(126 64 64)"/><rect fill="#000000" x="59.5" width="9" height="34.75" transform="rotate(144 64 64)"/><rect fill="#000000" x="59.5" width="9" height="34.75" transform="rotate(162 64 64)"/><rect fill="#000000" x="59.5" width="9" height="34.75" transform="rotate(180 64 64)"/><rect fill="#000000" x="59.5" width="9" height="34.75" transform="rotate(198 64 64)"/><rect fill="#000000" x="59.5" width="9" height="34.75" transform="rotate(216 64 64)"/><rect fill="#000000" x="59.5" width="9" height="34.75" transform="rotate(234 64 64)"/><rect fill="#000000" x="59.5" width="9" height="34.75" transform="rotate(252 64 64)"/><rect fill="#000000" x="59.5" width="9" height="34.75" transform="rotate(270 64 64)"/><rect fill="#000000" x="59.5" width="9" height="34.75" transform="rotate(288 64 64)"/><rect fill="#000000" x="59.5" width="9" height="34.75" transform="rotate(306 64 64)"/><rect fill="#000000" x="59.5" width="9" height="34.75" transform="rotate(324 64 64)"/><rect fill="#000000" x="59.5" width="9" height="34.75" transform="rotate(342 64 64)"/><animateTransform attributeName="transform" type="rotate" values="0 64 64;18 64 64;36 64 64;54 64 64;72 64 64;90 64 64;108 64 64;126 64 64;144 64 64;162 64 64;180 64 64;198 64 64;216 64 64;234 64 64;252 64 64;270 64 64;288 64 64;306 64 64;324 64 64;342 64 64" calcMode="discrete" dur="1800ms" repeatCount="indefinite"></animateTransform></g></svg>
